# xmcd
#
# Track frame offsets:
#	150
#	9937
#	24824
#	39021
#	52846
#	64638
#	76681
#	90154
#	103783
#	117787
#	131971
#	144377
#	162121
#	176299
#	187820
#	199195
#	213619
#	226869
#	239510
#	254156
#	266895
#
# Disc length: 3720 seconds
#
# Revision: 3
# Processed by: cddbd v1.5.1PL0 Copyright (c) Steve Scherf et al.
# Submitted via: audiograbber 1.82.02
#
DISCID=080e8615
DTITLE=V&A Art Deco Music Collection - V&A Art Deco CD2 TopHat and Tails
DYEAR=2003
DGENRE=Jazz
TTITLE0=Fred Astaire - Puttin' On The Ritz
TTITLE1=Ella Fitzgerald - Undecided
TTITLE2=Andrews Sisters - Bei Mir Bist Du Schoen
TTITLE3=Bing Crosby - Too Marvellous For Words
TTITLE4=Fred Astaire - Let Yourself Go
TTITLE5=Fred Astaire - Top Hat, White Tie And Tails
TTITLE6=Dick Powell - I've Got My Love To Keep Me Warm
TTITLE7=Judy Garland - Zing Went The Strings Of My Heart
TTITLE8=Lena Horne - That's What Love Did To Me
TTITLE9=Fred Astaire - The Way You Look Tonight
TTITLE10=Bing Crosby - Somebody Loves Me
TTITLE11=Fred Astaire - They Can't Take That Away From Me
TTITLE12=Bing Crosby - The Folks Who Live On The Hill
TTITLE13=Fred Astaire - Let's Face The Music And Dance
TTITLE14=Fred Astaire - Shall We Dance?
TTITLE15=Fred Rich - I Got Rhythm
TTITLE16=Fred Astaire - Pick Yourself Up
TTITLE17=Mills Bros - It Don't Mean A Thing (if it ain't got that swing)
TTITLE18=Fred Astaire - Let's Call The Whole Thing Off
TTITLE19=Andrews Sisters - Nice Work If You Can Get It
TTITLE20=Fred Astaire - They All Laughed
EXTD=
EXTT0=
EXTT1=
EXTT2=
EXTT3=
EXTT4=
EXTT5=
EXTT6=
EXTT7=
EXTT8=
EXTT9=
EXTT10=
EXTT11=
EXTT12=
EXTT13=
EXTT14=
EXTT15=
EXTT16=
EXTT17=
EXTT18=
EXTT19=
EXTT20=
PLAYORDER=
